<?xml version="1.0" standalone="no"?>
<!DOCTYPE svg PUBLIC "-//W3C//DTD SVG 20010904//EN"
 "http://www.w3.org/TR/2001/REC-SVG-20010904/DTD/svg10.dtd">
<svg version="1.0" xmlns="http://www.w3.org/2000/svg"
 width="1300.000000pt" height="1300.000000pt" viewBox="0 0 1300.000000 1300.000000"
 preserveAspectRatio="xMidYMid meet">
<metadata>
Created by potrace 1.14, written by Peter Selinger 2001-2017
</metadata>
<g transform="translate(0.000000,1300.000000) scale(0.100000,-0.100000)"
fill="#000000" stroke="none">
<path d="M6294 9998 c-47 -92 -64 -171 -73 -337 l-6 -113 -54 63 c-30 35 -58
63 -63 61 -5 -1 -7 2 -4 7 16 25 -229 191 -283 191 -8 0 -26 -76 -47 -205 -11
-70 -14 -133 -11 -208 l6 -108 -53 51 c-64 62 -110 94 -181 126 -68 31 -197
57 -206 42 -20 -31 24 -342 66 -478 45 -144 135 -314 219 -417 139 -169 329
-306 504 -365 81 -27 95 -29 202 -25 107 5 160 10 202 22 10 3 27 7 37 10 16
5 18 2 14 -15 -6 -21 11 -28 23 -8 5 7 3 8 -6 3 -9 -5 -10 -2 -5 14 4 12 2 21
-4 21 -16 0 -1 29 18 35 31 10 126 109 164 172 87 143 126 335 106 525 -20
205 -67 382 -140 531 -37 75 -77 147 -89 157 -3 3 -18 25 -35 49 -45 66 -173
193 -186 185 -7 -4 -9 -3 -6 3 6 9 -59 63 -76 63 -4 0 -18 -23 -33 -52z"/>
<path d="M7564 8365 c15 -59 38 -207 51 -340 39 -390 2 -781 -110 -1160 -28
-98 -90 -282 -110 -330 -7 -16 -20 -50 -30 -75 -10 -25 -26 -64 -36 -87 -11
-24 -19 -45 -19 -47 0 -5 -41 -93 -134 -290 -31 -65 -56 -121 -56 -125 0 -3
88 -94 195 -201 l194 -194 12 30 c40 101 183 506 219 619 193 605 198 1226 14
1795 -19 58 -38 114 -43 125 -6 11 -32 67 -59 125 -50 107 -98 191 -88 155z"/>
<path d="M6496 8227 c3 -10 9 -15 12 -12 3 3 0 11 -7 18 -10 9 -11 8 -5 -6z"/>
<path d="M6600 8213 c0 -5 5 -15 10 -23 7 -12 9 -10 7 8 -1 19 -17 33 -17 15z"/>
<path d="M6541 8114 c0 -11 3 -14 6 -6 3 7 2 16 -1 19 -3 4 -6 -2 -5 -13z"/>
<path d="M6546 8075 c4 -8 8 -15 10 -15 2 0 4 7 4 15 0 8 -4 15 -10 15 -5 0
-7 -7 -4 -15z"/>
<path d="M6564 8035 c10 -41 35 -99 36 -84 0 9 -9 36 -21 60 -11 24 -18 35
-15 24z"/>
<path d="M6690 7974 c0 -16 5 -36 10 -44 6 -10 7 -2 3 25 -7 49 -13 58 -13 19z"/>
<path d="M6600 7916 c0 -9 5 -16 10 -16 6 0 10 4 10 9 0 6 -4 13 -10 16 -5 3
-10 -1 -10 -9z"/>
<path d="M6721 7884 c0 -11 3 -14 6 -6 3 7 2 16 -1 19 -3 4 -6 -2 -5 -13z"/>
<path d="M6620 7870 c0 -11 2 -20 4 -20 2 0 6 9 9 20 3 11 1 20 -4 20 -5 0 -9
-9 -9 -20z"/>
<path d="M6721 7834 c0 -11 3 -14 6 -6 3 7 2 16 -1 19 -3 4 -6 -2 -5 -13z"/>
<path d="M6631 7804 c0 -11 3 -14 6 -6 3 7 2 16 -1 19 -3 4 -6 -2 -5 -13z"/>
<path d="M6760 7746 c0 -8 4 -17 9 -20 5 -4 7 3 4 14 -6 23 -13 26 -13 6z"/>
<path d="M6767 7672 c1 -8 3 -19 3 -25 0 -7 4 -6 10 3 12 19 13 33 1 26 -5 -4
-11 -3 -14 1 -2 5 -2 2 0 -5z"/>
<path d="M6691 7584 c0 -11 3 -14 6 -6 3 7 2 16 -1 19 -3 4 -6 -2 -5 -13z"/>
<path d="M6701 7524 c0 -11 3 -14 6 -6 3 7 2 16 -1 19 -3 4 -6 -2 -5 -13z"/>
<path d="M6806 7514 c-4 -14 -5 -29 -1 -32 3 -3 5 1 5 9 0 12 2 11 10 -1 8
-11 9 -7 4 15 -9 40 -10 41 -18 9z"/>
<path d="M6736 7401 c-4 -7 -5 -15 -2 -18 9 -9 19 4 14 18 -4 11 -6 11 -12 0z"/>
<path d="M6842 7380 c0 -14 2 -19 5 -12 2 6 2 18 0 25 -3 6 -5 1 -5 -13z"/>
<path d="M6841 7334 c0 -11 3 -14 6 -6 3 7 2 16 -1 19 -3 4 -6 -2 -5 -13z"/>
<path d="M6862 7260 c0 -14 2 -19 5 -12 2 6 2 18 0 25 -3 6 -5 1 -5 -13z"/>
<path d="M6771 7134 c0 -11 3 -14 6 -6 3 7 2 16 -1 19 -3 4 -6 -2 -5 -13z"/>
<path d="M6893 7035 c0 -33 2 -45 4 -27 2 18 2 45 0 60 -2 15 -4 0 -4 -33z"/>
<path d="M6780 7060 c0 -11 5 -20 10 -20 6 0 10 9 10 20 0 11 -4 20 -10 20 -5
0 -10 -9 -10 -20z"/>
<path d="M5627 6995 c-88 -266 -103 -683 -37 -1095 31 -194 46 -255 60 -252
10 2 11 0 2 -10 -28 -34 140 -594 288 -963 32 -79 43 -106 103 -240 17 -38 92
-191 167 -340 157 -311 202 -423 249 -625 22 -93 40 -219 43 -292 l1 -48 159
0 158 0 0 83 c0 161 49 438 123 697 51 176 225 688 302 890 8 19 57 152 110
295 53 143 110 294 126 335 l29 75 -198 197 c-108 108 -200 194 -204 190 -19
-20 -173 -333 -211 -432 -40 -102 -58 -157 -112 -345 -60 -214 -119 -647 -132
-982 -3 -84 -9 -153 -12 -153 -4 0 -5 -35 -4 -77 2 -60 0 -70 -6 -43 -15 60
-21 140 -11 140 6 0 10 5 10 11 0 6 -6 9 -14 6 -21 -8 -29 97 -23 338 2 115 1
167 -2 115 -3 -53 -7 73 -8 285 -3 395 -6 437 -55 685 -44 225 -125 399 -300
641 l-54 76 -98 -98 c-64 -63 -96 -102 -91 -110 6 -8 4 -10 -4 -4 -8 4 -25 -4
-44 -21 -18 -16 24 29 93 98 69 70 126 132 128 138 4 11 -39 65 -180 223 -75
84 -126 154 -213 292 -50 78 -90 189 -108 295 l-13 75 -17 -50z m273 -1108 c0
-2 -17 -19 -37 -38 l-38 -34 34 38 c33 34 41 42 41 34z m-81 -89 c-2 -2 -20
-16 -39 -33 l-35 -30 34 37 c19 21 37 36 39 33 3 -3 3 -6 1 -7z m-75 -84 c3
-9 2 -12 -5 -8 -6 3 -25 -7 -42 -22 -30 -28 -30 -27 2 9 19 20 36 37 37 37 1
0 5 -7 8 -16z"/>
<path d="M6792 6945 c0 -16 2 -22 5 -12 2 9 2 23 0 30 -3 6 -5 -1 -5 -18z"/>
<path d="M6902 6940 c0 -14 2 -19 5 -12 2 6 2 18 0 25 -3 6 -5 1 -5 -13z"/>
<path d="M6859 6828 c-12 -23 -12 -23 10 -4 23 21 26 26 11 26 -5 0 -15 -10
-21 -22z"/>
<path d="M6805 6830 c-3 -5 -1 -10 4 -10 6 0 11 5 11 10 0 6 -2 10 -4 10 -3 0
-8 -4 -11 -10z"/>
<path d="M6822 6808 c-9 -9 -9 -15 1 -27 10 -12 9 -14 -3 -9 -11 4 -15 -3 -16
-31 -1 -20 0 -27 3 -16 3 11 12 27 20 37 10 11 11 18 3 23 -8 5 -8 11 1 21 14
17 8 19 -9 2z"/>
<path d="M6791 6314 c0 -11 3 -14 6 -6 3 7 2 16 -1 19 -3 4 -6 -2 -5 -13z"/>
<path d="M6880 6304 c0 -10 5 -26 10 -34 8 -11 9 -7 4 15 -8 37 -14 45 -14 19z"/>
<path d="M6783 6275 c0 -8 4 -12 9 -9 5 3 6 10 3 15 -9 13 -12 11 -12 -6z"/>
<path d="M6845 6190 c-4 -6 -12 -7 -18 -4 -7 4 -1 -5 12 -19 14 -15 27 -27 29
-27 3 0 2 3 -1 7 -4 3 -2 12 5 20 9 11 8 13 -3 11 -8 -2 -13 3 -11 10 3 15 -4
16 -13 2z"/>
<path d="M6793 6173 c-4 -10 -14 -23 -22 -30 -9 -6 -13 -15 -9 -19 4 -4 14 -1
22 5 19 16 37 6 30 -17 -3 -9 1 -7 8 6 8 12 16 21 19 20 3 -2 -5 7 -17 18 -13
12 -20 25 -17 28 4 3 3 6 -1 6 -3 0 -10 -8 -13 -17z m32 -23 c3 -5 1 -10 -4
-10 -6 0 -11 5 -11 10 0 6 2 10 4 10 3 0 8 -4 11 -10z"/>
<path d="M6853 6115 c-3 -9 -3 -18 -1 -21 3 -3 8 4 11 16 6 23 -1 27 -10 5z"/>
<path d="M6840 6051 c0 -6 4 -13 10 -16 6 -3 7 1 4 9 -7 18 -14 21 -14 7z"/>
<path d="M6730 5995 c0 -5 5 -17 10 -25 5 -8 10 -10 10 -5 0 6 -5 17 -10 25
-5 8 -10 11 -10 5z"/>
<path d="M6711 5914 c0 -11 3 -14 6 -6 3 7 2 16 -1 19 -3 4 -6 -2 -5 -13z"/>
<path d="M6766 5715 c-4 -17 -2 -32 4 -39 8 -8 9 -6 4 8 -4 10 -2 21 4 25 6 4
7 12 3 20 -6 9 -10 5 -15 -14z"/>
<path d="M6665 5660 c4 -12 3 -20 -1 -17 -5 3 -9 -5 -10 -16 0 -12 -4 -31 -9
-42 l-7 -20 14 20 c22 29 32 81 18 90 -9 5 -10 1 -5 -15z"/>
<path d="M6761 5644 c0 -11 3 -14 6 -6 3 7 2 16 -1 19 -3 4 -6 -2 -5 -13z"/>
<path d="M6731 5514 c0 -11 3 -14 6 -6 3 7 2 16 -1 19 -3 4 -6 -2 -5 -13z"/>
<path d="M6721 5434 c0 -11 3 -14 6 -6 3 7 2 16 -1 19 -3 4 -6 -2 -5 -13z"/>
<path d="M6621 5364 c0 -11 3 -14 6 -6 3 7 2 16 -1 19 -3 4 -6 -2 -5 -13z"/>
<path d="M6700 5359 c-6 -11 -10 -28 -8 -37 2 -10 8 -1 15 21 12 41 10 48 -7
16z"/>
<path d="M6590 5311 c-12 -24 -13 -34 -1 -27 9 6 22 46 15 46 -2 0 -8 -9 -14
-19z"/>
<path d="M6656 5155 c-3 -9 -6 -22 -5 -28 0 -7 5 -1 10 12 5 13 8 26 5 28 -2
2 -6 -3 -10 -12z"/>
<path d="M6640 5086 c0 -17 14 -29 23 -20 8 8 -3 34 -14 34 -5 0 -9 -6 -9 -14z"/>
<path d="M6645 5030 c3 -5 8 -10 11 -10 2 0 4 5 4 10 0 6 -5 10 -11 10 -5 0
-7 -4 -4 -10z"/>
<path d="M6610 4197 c4 -41 5 -41 8 -8 2 18 0 37 -5 42 -5 5 -6 -11 -3 -34z"/>
<path d="M6610 4050 c0 -5 5 -10 10 -10 6 0 10 5 10 10 0 6 -4 10 -10 10 -5 0
-10 -4 -10 -10z"/>
</g>
</svg>
